<svg xmlns="http://www.w3.org/2000/svg" viewBox="0 0 256 193.8">
  <path fill="#EA4335" d="M58.2 193.8V94.3L0 50.7v122.4c0 11.5 9.3 20.7 20.7 20.7h37.5z"/>
  <path fill="#34A853" d="M197.8 193.8h37.5c11.5 0 20.7-9.3 20.7-20.7V50.7l-58.2 43.6z"/>
  <path fill="#4285F4" d="M197.8 20.7v73.6L256 50.7V31.1C256 5.2 226.5-9.5 205.9 6.1z"/>
  <path fill="#FBBC04" d="M58.2 94.3V20.7L128 73l69.8-52.3v73.6L128 146.6z"/>
  <path fill="#C5221F" d="M0 31.1v19.6l58.2 43.6V20.7L50.1 6.1C29.5-9.5 0 5.2 0 31.1z"/>
</svg>